# xmcd
# 
# Track frame offsets:
#     150
#     14592
#     30234
#     43607
# 
# Disc length: 857
# 
# Revision: 1
# Processed by: cddbd v1.5.2PL0 Copyright (c) Steve Scherf et al.
# Submitted via: fre:ac v1.0.17
# 
DISCID=25035704
DTITLE=NoM - Three Words for Blood (4-Track-Promo)
DYEAR=2008
DGENRE=Hardcode
TTITLE0=Fight Back
TTITLE1=Crackdown
TTITLE2=Every Single Day
TTITLE3=Cold Comfort
EXTD=
EXTT0=
EXTT1=
EXTT2=
EXTT3=
PLAYORDER=
